<mxfile host="Electron" modified="2024-06-09T12:49:32.858Z" agent="Mozilla/5.0 (Windows NT 10.0; Win64; x64) AppleWebKit/537.36 (KHTML, like Gecko) draw.io/24.5.1 Chrome/124.0.6367.207 Electron/30.0.6 Safari/537.36" etag="5Snyh1xUIirNAcvsA4w1" version="24.5.1" type="device">
  <diagram name="Page-1" id="cPzgBAmaUuwJ-x_P3JZA">
    <mxGraphModel dx="1006" dy="511" grid="1" gridSize="10" guides="1" tooltips="1" connect="1" arrows="1" fold="1" page="1" pageScale="1" pageWidth="850" pageHeight="1100" math="0" shadow="0">
      <root>
        <mxCell id="0" />
        <mxCell id="1" parent="0" />
        <mxCell id="26ykFiADB4ufG6l7N5RC-1" value="&lt;font style=&quot;font-size: 11px;&quot;&gt;RecommendController&amp;nbsp;&lt;/font&gt;&lt;span style=&quot;font-size: 11px; background-color: initial;&quot;&gt;&amp;lt;&amp;lt;Controller&amp;gt;&amp;gt;&lt;/span&gt;" style="swimlane;fontStyle=1;align=center;verticalAlign=top;childLayout=stackLayout;horizontal=1;startSize=26;horizontalStack=0;resizeParent=1;resizeParentMax=0;resizeLast=0;collapsible=1;marginBottom=0;whiteSpace=wrap;html=1;" vertex="1" parent="1">
          <mxGeometry x="200" y="230" width="230" height="90" as="geometry" />
        </mxCell>
        <mxCell id="26ykFiADB4ufG6l7N5RC-2" value="- movieName: String" style="text;strokeColor=none;fillColor=none;align=left;verticalAlign=top;spacingLeft=4;spacingRight=4;overflow=hidden;rotatable=0;points=[[0,0.5],[1,0.5]];portConstraint=eastwest;whiteSpace=wrap;html=1;" vertex="1" parent="26ykFiADB4ufG6l7N5RC-1">
          <mxGeometry y="26" width="230" height="24" as="geometry" />
        </mxCell>
        <mxCell id="26ykFiADB4ufG6l7N5RC-3" value="" style="line;strokeWidth=1;fillColor=none;align=left;verticalAlign=middle;spacingTop=-1;spacingLeft=3;spacingRight=3;rotatable=0;labelPosition=right;points=[];portConstraint=eastwest;strokeColor=inherit;" vertex="1" parent="26ykFiADB4ufG6l7N5RC-1">
          <mxGeometry y="50" width="230" height="8" as="geometry" />
        </mxCell>
        <mxCell id="26ykFiADB4ufG6l7N5RC-4" value="+ movie(movieName)" style="text;strokeColor=none;fillColor=none;align=left;verticalAlign=top;spacingLeft=4;spacingRight=4;overflow=hidden;rotatable=0;points=[[0,0.5],[1,0.5]];portConstraint=eastwest;whiteSpace=wrap;html=1;" vertex="1" parent="26ykFiADB4ufG6l7N5RC-1">
          <mxGeometry y="58" width="230" height="32" as="geometry" />
        </mxCell>
        <mxCell id="26ykFiADB4ufG6l7N5RC-5" value="&lt;span style=&quot;font-size: 11px;&quot;&gt;MovieService&lt;/span&gt;" style="swimlane;fontStyle=1;align=center;verticalAlign=top;childLayout=stackLayout;horizontal=1;startSize=26;horizontalStack=0;resizeParent=1;resizeParentMax=0;resizeLast=0;collapsible=1;marginBottom=0;whiteSpace=wrap;html=1;" vertex="1" parent="1">
          <mxGeometry x="230" y="70" width="225" height="110" as="geometry" />
        </mxCell>
        <mxCell id="26ykFiADB4ufG6l7N5RC-9" value="- movieId: Int" style="text;html=1;align=left;verticalAlign=middle;resizable=0;points=[];autosize=1;strokeColor=none;fillColor=none;" vertex="1" parent="26ykFiADB4ufG6l7N5RC-5">
          <mxGeometry y="26" width="225" height="30" as="geometry" />
        </mxCell>
        <mxCell id="26ykFiADB4ufG6l7N5RC-6" value="" style="line;strokeWidth=1;fillColor=none;align=left;verticalAlign=middle;spacingTop=-1;spacingLeft=3;spacingRight=3;rotatable=0;labelPosition=right;points=[];portConstraint=eastwest;strokeColor=inherit;" vertex="1" parent="26ykFiADB4ufG6l7N5RC-5">
          <mxGeometry y="56" width="225" height="14" as="geometry" />
        </mxCell>
        <mxCell id="26ykFiADB4ufG6l7N5RC-7" value="&lt;div&gt;&lt;span style=&quot;background-color: initial;&quot;&gt;+ getReferenceById(movieId)&lt;/span&gt;&lt;/div&gt;" style="text;strokeColor=none;fillColor=none;align=left;verticalAlign=top;spacingLeft=4;spacingRight=4;overflow=hidden;rotatable=0;points=[[0,0.5],[1,0.5]];portConstraint=eastwest;whiteSpace=wrap;html=1;" vertex="1" parent="26ykFiADB4ufG6l7N5RC-5">
          <mxGeometry y="70" width="225" height="40" as="geometry" />
        </mxCell>
        <mxCell id="26ykFiADB4ufG6l7N5RC-8" value="" style="endArrow=none;html=1;rounded=0;exitX=0.591;exitY=0.011;exitDx=0;exitDy=0;entryX=0.481;entryY=1.021;entryDx=0;entryDy=0;entryPerimeter=0;exitPerimeter=0;" edge="1" parent="1" source="26ykFiADB4ufG6l7N5RC-1" target="26ykFiADB4ufG6l7N5RC-7">
          <mxGeometry width="50" height="50" relative="1" as="geometry">
            <mxPoint x="450" y="240" as="sourcePoint" />
            <mxPoint x="310" y="170" as="targetPoint" />
          </mxGeometry>
        </mxCell>
        <mxCell id="26ykFiADB4ufG6l7N5RC-10" value="&lt;span style=&quot;font-size: 11px;&quot;&gt;FileSystem&lt;/span&gt;" style="swimlane;fontStyle=1;align=center;verticalAlign=top;childLayout=stackLayout;horizontal=1;startSize=26;horizontalStack=0;resizeParent=1;resizeParentMax=0;resizeLast=0;collapsible=1;marginBottom=0;whiteSpace=wrap;html=1;" vertex="1" parent="1">
          <mxGeometry x="480" y="210" width="225" height="110" as="geometry" />
        </mxCell>
        <mxCell id="26ykFiADB4ufG6l7N5RC-11" value="- movieName: String" style="text;html=1;align=left;verticalAlign=middle;resizable=0;points=[];autosize=1;strokeColor=none;fillColor=none;" vertex="1" parent="26ykFiADB4ufG6l7N5RC-10">
          <mxGeometry y="26" width="225" height="30" as="geometry" />
        </mxCell>
        <mxCell id="26ykFiADB4ufG6l7N5RC-12" value="" style="line;strokeWidth=1;fillColor=none;align=left;verticalAlign=middle;spacingTop=-1;spacingLeft=3;spacingRight=3;rotatable=0;labelPosition=right;points=[];portConstraint=eastwest;strokeColor=inherit;" vertex="1" parent="26ykFiADB4ufG6l7N5RC-10">
          <mxGeometry y="56" width="225" height="14" as="geometry" />
        </mxCell>
        <mxCell id="26ykFiADB4ufG6l7N5RC-13" value="&lt;div&gt;&lt;span style=&quot;background-color: initial;&quot;&gt;+writeKeywordToFile(movieName)&amp;nbsp;&lt;/span&gt;&lt;/div&gt;" style="text;strokeColor=none;fillColor=none;align=left;verticalAlign=top;spacingLeft=4;spacingRight=4;overflow=hidden;rotatable=0;points=[[0,0.5],[1,0.5]];portConstraint=eastwest;whiteSpace=wrap;html=1;" vertex="1" parent="26ykFiADB4ufG6l7N5RC-10">
          <mxGeometry y="70" width="225" height="40" as="geometry" />
        </mxCell>
        <mxCell id="26ykFiADB4ufG6l7N5RC-14" value="" style="endArrow=none;html=1;rounded=0;exitX=1;exitY=0.875;exitDx=0;exitDy=0;entryX=0.003;entryY=1.233;entryDx=0;entryDy=0;entryPerimeter=0;exitPerimeter=0;" edge="1" parent="1" source="26ykFiADB4ufG6l7N5RC-2" target="26ykFiADB4ufG6l7N5RC-11">
          <mxGeometry width="50" height="50" relative="1" as="geometry">
            <mxPoint x="356" y="231" as="sourcePoint" />
            <mxPoint x="408" y="191" as="targetPoint" />
          </mxGeometry>
        </mxCell>
        <mxCell id="26ykFiADB4ufG6l7N5RC-15" value="&lt;span style=&quot;font-size: 11px;&quot;&gt;PythonScript&lt;/span&gt;" style="swimlane;fontStyle=1;align=center;verticalAlign=top;childLayout=stackLayout;horizontal=1;startSize=26;horizontalStack=0;resizeParent=1;resizeParentMax=0;resizeLast=0;collapsible=1;marginBottom=0;whiteSpace=wrap;html=1;" vertex="1" parent="1">
          <mxGeometry x="480" y="70" width="225" height="80" as="geometry" />
        </mxCell>
        <mxCell id="26ykFiADB4ufG6l7N5RC-17" value="" style="line;strokeWidth=1;fillColor=none;align=left;verticalAlign=middle;spacingTop=-1;spacingLeft=3;spacingRight=3;rotatable=0;labelPosition=right;points=[];portConstraint=eastwest;strokeColor=inherit;" vertex="1" parent="26ykFiADB4ufG6l7N5RC-15">
          <mxGeometry y="26" width="225" height="14" as="geometry" />
        </mxCell>
        <mxCell id="26ykFiADB4ufG6l7N5RC-18" value="&lt;div&gt;&lt;span style=&quot;background-color: initial;&quot;&gt;+excecute(file)&lt;/span&gt;&lt;/div&gt;" style="text;strokeColor=none;fillColor=none;align=left;verticalAlign=top;spacingLeft=4;spacingRight=4;overflow=hidden;rotatable=0;points=[[0,0.5],[1,0.5]];portConstraint=eastwest;whiteSpace=wrap;html=1;" vertex="1" parent="26ykFiADB4ufG6l7N5RC-15">
          <mxGeometry y="40" width="225" height="40" as="geometry" />
        </mxCell>
        <mxCell id="26ykFiADB4ufG6l7N5RC-21" value="" style="endArrow=none;html=1;rounded=0;exitX=0.471;exitY=0.006;exitDx=0;exitDy=0;entryX=0.481;entryY=1.021;entryDx=0;entryDy=0;entryPerimeter=0;exitPerimeter=0;" edge="1" parent="1" source="26ykFiADB4ufG6l7N5RC-10">
          <mxGeometry width="50" height="50" relative="1" as="geometry">
            <mxPoint x="580" y="220" as="sourcePoint" />
            <mxPoint x="582" y="150" as="targetPoint" />
          </mxGeometry>
        </mxCell>
      </root>
    </mxGraphModel>
  </diagram>
</mxfile>
